<?xml version="1.0" standalone="no"?>
<!DOCTYPE svg PUBLIC "-//W3C//DTD SVG 20010904//EN"
 "http://www.w3.org/TR/2001/REC-SVG-20010904/DTD/svg10.dtd">
<svg version="1.0" xmlns="http://www.w3.org/2000/svg"
 width="1260.000000pt" height="1271.000000pt" viewBox="0 0 1260.000000 1271.000000"
 preserveAspectRatio="xMidYMid meet">

<g transform="translate(0.000000,1271.000000) scale(0.100000,-0.100000)"
fill="#000000" stroke="none">
<path d="M3233 12499 c-35 -4 -68 -11 -75 -15 -6 -4 -86 -11 -177 -15 -110 -5
-181 -12 -210 -23 -24 -9 -71 -16 -105 -16 -35 0 -70 -6 -81 -14 -11 -7 -48
-16 -83 -19 -35 -4 -73 -14 -85 -22 -12 -8 -34 -15 -50 -15 -15 0 -45 -9 -67
-20 -22 -11 -52 -20 -68 -20 -15 0 -37 -7 -48 -15 -10 -8 -28 -15 -39 -15 -11
0 -33 -9 -50 -20 -16 -11 -39 -20 -50 -20 -11 0 -28 -9 -38 -20 -9 -11 -24
-20 -33 -20 -20 0 -160 -67 -193 -92 -13 -10 -30 -18 -38 -18 -20 0 -330 -209
-453 -305 -102 -80 -153 -126 -216 -196 -17 -19 -54 -56 -82 -83 -29 -27 -52
-52 -52 -55 0 -3 -32 -39 -70 -80 -39 -40 -70 -79 -70 -86 0 -6 -9 -20 -20
-30 -11 -10 -20 -24 -20 -31 0 -8 -11 -21 -25 -30 -14 -9 -25 -25 -25 -35 0
-10 -8 -24 -18 -31 -10 -7 -32 -35 -49 -63 -18 -27 -39 -57 -47 -65 -8 -8 -18
-29 -22 -45 -4 -17 -15 -38 -25 -48 -11 -10 -19 -28 -19 -41 0 -13 -9 -31 -20
-41 -11 -10 -20 -23 -20 -30 0 -6 -11 -26 -25 -45 -14 -19 -25 -46 -25 -60 0
-15 -9 -35 -20 -45 -11 -10 -23 -35 -26 -56 -4 -21 -15 -46 -25 -55 -11 -10
-19 -30 -19 -49 0 -18 -9 -44 -21 -58 -11 -15 -24 -48 -28 -75 -4 -27 -15 -59
-24 -73 -11 -15 -17 -43 -17 -76 0 -34 -7 -67 -21 -93 -15 -29 -23 -70 -29
-143 -4 -56 -15 -120 -23 -142 -12 -28 -16 -75 -17 -161 0 -77 -8 -165 -21
-240 -20 -112 -21 -142 -15 -529 3 -225 11 -466 17 -535 13 -141 6 -552 -11
-695 -8 -66 -8 -161 1 -360 8 -192 9 -403 3 -730 -5 -253 -9 -919 -10 -1480
-1 -561 -3 -1135 -6 -1275 -5 -293 4 -507 26 -634 10 -52 16 -145 16 -226 0
-103 4 -148 17 -181 9 -26 18 -91 22 -161 5 -95 10 -120 25 -137 14 -15 21
-41 24 -84 3 -40 11 -71 23 -86 11 -13 19 -38 19 -55 0 -19 11 -47 25 -66 14
-19 25 -47 25 -65 0 -19 8 -39 20 -50 12 -11 20 -31 20 -51 0 -21 9 -43 25
-60 16 -17 25 -39 25 -59 0 -19 8 -39 20 -50 11 -10 20 -29 20 -42 0 -13 11
-33 25 -45 14 -12 25 -31 25 -43 0 -12 9 -30 20 -40 11 -10 20 -26 20 -35 0
-9 9 -25 20 -35 11 -10 20 -24 20 -31 0 -7 11 -26 25 -42 14 -17 25 -35 25
-41 0 -6 11 -18 25 -27 14 -9 25 -21 25 -26 0 -10 34 -56 65 -89 8 -9 15 -20
15 -26 0 -5 12 -24 27 -40 16 -17 39 -46 52 -64 13 -19 42 -49 64 -67 22 -17
54 -50 72 -73 50 -63 226 -221 359 -322 126 -95 275 -197 287 -197 5 0 38 -18
76 -41 86 -52 88 -53 148 -83 104 -52 205 -96 219 -96 9 0 35 -8 58 -19 98
-43 120 -51 138 -51 11 0 46 -9 77 -20 67 -23 123 -35 248 -54 50 -8 109 -19
132 -25 23 -6 140 -18 260 -26 332 -23 6334 -22 6653 1 118 8 238 21 265 29
28 7 77 16 110 20 97 11 390 98 440 132 11 7 26 13 35 13 8 0 33 9 55 19 22
11 60 27 85 37 53 20 208 91 230 104 215 131 222 135 336 214 165 116 205 149
345 289 148 149 211 216 219 235 3 7 24 34 47 60 75 84 133 161 133 177 0 8 9
20 20 27 11 7 20 18 20 25 0 6 11 25 25 41 14 17 25 36 25 44 0 8 9 23 20 33
11 10 20 25 20 33 0 8 11 27 25 44 14 16 25 40 25 52 0 13 9 33 20 46 11 13
20 30 20 40 0 9 11 31 25 50 14 19 25 44 25 55 0 12 9 30 20 40 11 10 20 30
20 45 0 15 11 48 25 74 14 26 25 61 25 77 0 16 9 42 19 57 10 15 21 50 24 78
3 29 15 69 26 90 13 24 21 57 21 89 0 32 7 62 20 83 15 24 20 50 20 99 0 36
10 107 23 157 l22 91 0 3250 c0 3133 -1 3252 -18 3310 -14 44 -20 103 -24 220
-3 128 -8 169 -24 207 -12 30 -19 70 -19 114 0 50 -5 75 -21 101 -13 20 -23
58 -26 96 -4 38 -13 71 -24 86 -11 13 -19 40 -19 60 0 24 -9 49 -25 71 -14 19
-25 47 -25 65 0 19 -8 39 -20 50 -11 10 -20 29 -20 43 0 13 -11 37 -25 54 -14
16 -25 40 -25 52 0 13 -9 31 -20 41 -11 10 -20 26 -20 36 0 10 -11 30 -25 45
-14 15 -25 36 -25 48 0 12 -9 27 -20 34 -11 7 -20 23 -20 36 0 14 -10 30 -26
41 -15 10 -23 22 -20 31 3 8 -5 24 -19 36 -14 12 -25 29 -25 39 0 9 -11 24
-25 33 -14 9 -25 24 -25 34 0 9 -18 36 -40 60 -22 24 -40 47 -40 52 0 4 -22
28 -50 53 -27 25 -50 49 -50 54 0 6 -21 30 -47 54 -26 24 -63 61 -82 83 -88
95 -116 119 -276 246 -93 74 -174 140 -180 146 -10 13 -101 66 -145 85 -13 5
-43 26 -66 45 -23 19 -51 34 -62 34 -11 0 -25 7 -32 15 -7 8 -18 15 -25 15 -6
0 -20 9 -30 20 -10 11 -29 20 -42 20 -14 0 -36 9 -50 20 -14 11 -36 20 -48 20
-12 0 -28 7 -35 15 -7 8 -19 15 -28 15 -14 0 -73 25 -134 56 -14 8 -41 14 -60
14 -18 0 -46 9 -63 20 -16 11 -45 20 -63 20 -19 0 -45 9 -59 20 -17 13 -41 20
-72 20 -25 0 -55 7 -65 15 -13 10 -43 15 -85 15 -38 0 -93 9 -129 20 -44 14
-93 20 -155 20 -63 1 -105 6 -132 18 -37 16 -255 17 -3155 18 -1713 1 -3143
-2 -3177 -7z m4251 -2868 c19 -18 46 -56 61 -84 16 -29 96 -167 178 -307 83
-140 190 -322 237 -405 199 -344 487 -838 642 -1100 198 -335 190 -319 181
-340 -5 -14 -16 -16 -58 -13 -43 4 -62 12 -111 50 -82 63 -362 256 -404 279
-35 19 -35 19 -52 -2 -10 -12 -18 -31 -18 -43 0 -11 -5 -64 -11 -116 -5 -52
-14 -135 -18 -184 -7 -68 -13 -93 -27 -103 -50 -37 -79 -10 -290 273 -174 232
-220 284 -253 284 -9 0 -42 -26 -72 -57 -61 -63 -106 -123 -92 -123 13 0 -5
-153 -19 -161 -11 -7 -48 9 -46 20 1 4 -3 15 -7 25 -8 19 -9 19 -16 0 -7 -17
-8 -17 -8 -1 -1 10 -6 15 -11 12 -6 -4 -7 -11 -4 -17 4 -6 3 -8 -3 -5 -9 6
-60 -42 -108 -102 -16 -20 -17 -23 -4 -18 9 3 22 0 28 -6 9 -9 14 -9 20 2 7
11 11 10 19 -5 10 -18 11 -18 29 -1 17 15 22 15 39 2 16 -12 16 -14 3 -15 -23
0 -29 -32 -11 -50 14 -13 15 -12 9 3 -4 11 -3 16 3 12 6 -3 10 -13 10 -21 0
-15 23 -44 35 -44 3 0 3 6 -1 13 -5 9 -4 9 6 0 10 -9 10 -35 1 -131 -21 -223
-17 -243 73 -376 26 -39 44 -76 41 -83 -2 -8 -1 -11 4 -8 18 11 22 -16 7 -41
-12 -17 -13 -23 -4 -22 7 2 15 12 18 22 5 16 10 12 33 -23 15 -23 25 -46 22
-52 -4 -5 -1 -8 6 -7 23 5 37 -66 44 -208 3 -77 8 -175 10 -219 10 -160 15
-447 14 -775 0 -184 0 -351 1 -370 1 -19 2 -61 3 -93 1 -38 6 -57 15 -57 6 0
12 10 12 23 0 13 11 79 25 148 78 393 175 952 175 1009 0 64 9 64 107 -1 l91
-60 7 -99 c4 -54 4 -103 0 -109 -3 -6 -2 -11 3 -11 5 0 12 -44 16 -97 4 -54 9
-122 12 -152 3 -38 1 -57 -8 -63 -9 -5 -10 -10 -2 -15 18 -14 34 -106 21 -122
-9 -12 -9 -13 1 -7 13 8 17 -71 14 -291 0 -62 3 -113 8 -113 14 0 18 24 35
190 8 85 17 173 20 195 2 22 4 43 4 47 1 13 254 -85 282 -109 38 -32 58 -517
31 -768 -9 -83 -8 -91 9 -104 18 -13 28 -38 11 -27 -5 3 -16 -10 -25 -29 -10
-21 -12 -37 -7 -40 6 -3 11 2 11 12 1 17 2 17 6 1 3 -13 14 -18 38 -18 27 0
38 6 49 28 8 15 15 22 16 15 0 -7 6 -10 13 -7 7 2 29 -6 48 -18 26 -18 41 -42
66 -103 51 -129 94 -286 82 -304 -8 -13 -9 -11 -4 7 4 13 2 21 -4 20 -5 -2
-17 6 -25 17 -13 16 -15 17 -10 3 4 -11 1 -18 -6 -18 -6 0 -14 9 -17 20 -3 11
-11 20 -19 20 -8 0 -11 -6 -8 -15 4 -8 1 -15 -5 -15 -6 0 -12 6 -13 13 0 6 -2
17 -3 22 -2 6 -3 15 -4 20 -1 6 -6 3 -11 -5 -7 -12 -10 -12 -10 -1 0 9 -7 11
-23 7 -32 -8 -59 25 -51 62 5 24 4 25 -7 8 -12 -19 -12 -19 -27 0 -14 18 -14
18 -9 -5 l6 -23 -20 20 c-10 12 -19 26 -19 31 0 14 -45 61 -58 61 -6 0 -12 -3
-15 -7 -2 -5 -2 -2 -1 5 2 6 -4 12 -14 12 -13 0 -14 2 -4 8 7 5 10 16 6 25 -4
12 -1 17 12 17 16 0 16 2 4 10 -9 6 -17 5 -21 -2 -4 -6 -12 -7 -18 -4 -6 4
-11 0 -11 -8 0 -13 -4 -12 -21 5 -27 27 -38 16 -13 -13 17 -19 17 -21 2 -15
-11 4 -18 2 -18 -6 0 -8 -3 -9 -8 -1 -4 6 -16 16 -27 22 -19 11 -19 11 5 12
l25 1 -24 20 c-21 17 -22 22 -10 30 9 5 10 9 2 9 -6 0 -15 -5 -19 -12 -5 -8
-10 -6 -15 8 -6 17 -8 16 -18 -8 -12 -32 -26 -38 -16 -8 5 15 3 18 -9 14 -8
-3 -17 -13 -20 -22 -3 -10 -4 -5 -2 11 4 33 -7 35 -23 5 -10 -20 -11 -18 -7
17 3 22 2 32 0 22 -3 -9 -10 -14 -16 -10 -7 4 -9 0 -5 -10 3 -9 0 -18 -9 -21
-9 -3 -14 1 -15 12 0 10 -3 12 -6 5 -6 -15 -43 -17 -43 -3 0 6 7 10 15 10 18
0 20 26 3 36 -7 5 -8 3 -3 -6 8 -13 -10 -30 -33 -30 -7 0 -24 11 -37 25 -14
13 -25 19 -25 13 0 -7 -6 -6 -15 2 -9 7 -13 21 -10 31 4 10 1 27 -5 36 -10 16
-11 16 -6 1 3 -9 -4 -27 -15 -40 -13 -16 -17 -17 -13 -6 5 14 1 17 -25 13 -23
-3 -32 1 -36 16 -7 21 -25 26 -25 7 -1 -7 -8 -1 -16 15 -8 15 -12 33 -8 39 5
8 10 5 15 -8 6 -16 8 -16 8 -2 1 9 -4 20 -9 23 -6 4 -8 10 -6 14 3 4 -4 8 -15
8 -21 2 -26 -13 -6 -20 6 -2 9 -7 6 -11 -10 -10 -41 5 -36 18 6 14 -35 16 -44
2 -4 -5 -10 1 -13 12 -4 11 -13 23 -21 26 -18 6 -19 1 -5 -25 7 -12 7 -19 1
-19 -6 0 -15 18 -21 40 -11 39 -27 54 -27 25 0 -8 4 -12 9 -9 4 3 8 -2 8 -10
0 -26 -34 -14 -36 12 -2 30 -5 34 -21 28 -9 -4 -20 -1 -25 6 -6 9 -8 7 -6 -7
2 -12 11 -19 21 -19 20 2 23 -12 5 -18 -7 -3 -20 5 -30 16 -15 18 -19 19 -29
6 -8 -12 -9 -8 -4 15 6 29 6 29 -10 10 -16 -20 -16 -20 -12 3 6 24 -4 28 -32
12 -14 -7 -23 -4 -37 11 -18 20 -18 20 7 10 24 -9 25 -7 21 20 -2 16 -8 29
-12 29 -5 0 -6 -10 -2 -22 3 -14 2 -19 -6 -14 -7 4 -12 15 -12 24 0 15 -2 15
-10 2 -7 -12 -13 -13 -27 -3 -10 6 -17 16 -15 23 1 6 -2 9 -8 5 -5 -3 -10 2
-11 12 0 10 -3 13 -5 6 -3 -6 2 -23 11 -36 11 -17 13 -27 6 -32 -7 -3 -11 3
-11 14 0 20 -14 29 -23 14 -2 -5 -2 -2 -1 4 2 7 -1 23 -6 35 -5 13 -9 17 -9
11 -1 -7 -9 -13 -18 -13 -15 0 -16 2 -3 10 10 6 11 10 3 10 -7 0 -13 6 -13 14
0 7 -11 21 -25 30 -23 15 -25 15 -26 -1 0 -11 -3 -13 -6 -5 -2 6 -9 10 -14 7
-4 -3 -6 15 -4 41 5 51 0 68 -18 57 -23 -14 -38 -12 -32 6 3 9 -2 26 -11 37
-15 19 -15 19 -6 -1 5 -11 6 -29 2 -40 -7 -19 -7 -19 -18 0 -12 22 -16 16 -6
-9 3 -9 12 -16 19 -16 7 0 16 -7 19 -16 5 -14 9 -13 27 7 16 19 19 20 15 6 -3
-10 -6 -22 -6 -27 0 -18 -32 -18 -47 0 -14 16 -20 17 -32 7 -10 -8 -13 -8 -8
0 9 14 -2 45 -14 37 -5 -3 -9 3 -9 12 0 16 -1 16 -20 -1 -11 -10 -20 -13 -20
-7 0 6 6 13 13 15 16 7 -13 29 -30 23 -6 -3 -14 2 -17 10 -4 11 -16 14 -46 10
-35 -4 -40 -2 -40 15 0 14 -4 18 -12 12 -20 -12 -48 -14 -48 -3 0 5 -7 6 -17
3 -11 -4 -14 -3 -9 5 5 8 2 10 -8 6 -10 -4 -16 -1 -16 9 0 10 7 15 20 12 12
-2 20 2 20 10 0 9 -9 14 -22 12 -18 -1 -23 3 -24 23 -2 40 -3 42 -19 26 -17
-17 -20 -30 -5 -21 6 4 10 -5 10 -19 l0 -26 -30 32 c-17 17 -30 36 -30 42 0 6
5 4 10 -4 9 -13 11 -13 20 0 12 19 12 27 0 35 -6 4 -7 -1 -4 -12 5 -14 4 -15
-4 -4 -8 11 -5 23 11 45 11 16 16 26 10 23 -7 -4 -14 1 -18 12 -7 23 -61 45
-71 29 -4 -7 -2 -8 4 -4 7 4 12 2 12 -3 0 -6 -7 -11 -15 -11 -8 0 -15 5 -15
11 0 12 -42 8 -51 -5 -4 -5 -15 6 -24 24 -13 25 -14 34 -5 40 9 5 9 9 1 14 -6
4 -11 2 -11 -4 0 -6 -5 -8 -11 -5 -6 4 -8 14 -5 22 3 8 1 11 -4 8 -6 -4 -10 6
-11 22 0 15 -3 22 -6 15 -3 -9 -16 -2 -42 21 -20 18 -93 63 -161 100 -69 38
-138 79 -155 94 -16 14 -24 22 -16 18 11 -6 13 -3 8 15 -3 12 -1 33 4 47 13
35 2 46 -27 27 -19 -13 -24 -14 -25 -3 0 9 -3 7 -7 -3 -7 -16 -8 -16 -20 3 -8
12 -9 18 -3 14 15 -9 13 16 -3 38 -10 13 -15 14 -18 5 -5 -14 -58 62 -138 197
-29 50 -61 104 -71 121 -16 26 -16 31 -4 31 8 0 14 -5 13 -11 -2 -6 2 -12 7
-13 6 -1 9 10 8 25 -2 18 0 23 6 13 6 -10 10 -10 16 -1 8 13 -2 61 -13 58 -4
-1 -18 4 -30 11 -21 11 -26 10 -40 -7 -15 -18 -17 -17 -50 32 -69 102 -194
311 -195 328 -1 9 -4 15 -8 12 -14 -8 -21 18 -8 28 11 8 10 9 -3 5 -12 -4 -23
5 -38 30 -20 34 -20 37 -4 54 10 11 15 22 11 25 -3 3 -12 -3 -19 -15 -7 -12
-18 -21 -25 -21 -6 0 -14 -6 -17 -12 -4 -7 -5 -4 -2 8 2 12 -5 32 -16 45 -11
13 -17 18 -13 12 4 -8 0 -13 -10 -13 -9 0 -13 -4 -10 -10 3 -5 2 -10 -4 -10
-5 0 -11 6 -13 12 -3 7 -7 2 -10 -10 -4 -12 -2 -20 3 -16 5 3 9 0 9 -5 0 -6
-5 -11 -10 -11 -6 0 -5 -6 2 -14 7 -8 16 -12 21 -9 4 2 7 -1 7 -6 0 -6 5 -11
11 -11 6 0 8 7 5 15 -17 43 -17 49 2 26 l20 -24 -29 -48 c-24 -38 -34 -47 -54
-45 -24 3 -24 3 -10 -31 8 -18 45 -77 82 -131 212 -306 232 -344 199 -371 -17
-15 -33 -9 -208 79 -75 39 -142 70 -147 70 -13 0 -17 -33 -29 -202 -5 -83 -14
-143 -22 -153 -22 -27 -57 -17 -117 35 -32 27 -105 90 -163 139 -58 50 -108
91 -111 91 -4 0 -54 -58 -113 -129 -58 -71 -121 -142 -140 -159 -29 -25 -35
-39 -41 -83 -10 -88 -24 -159 -34 -177 -9 -15 -10 -14 -11 6 0 12 -4 22 -10
22 -5 0 -10 8 -11 18 0 10 -3 12 -6 4 -2 -6 -9 -10 -14 -6 -5 3 -9 -6 -9 -19
0 -32 -27 -57 -36 -33 -13 33 -26 15 -20 -26 4 -29 3 -38 -4 -28 -13 20 -35
-2 -26 -26 4 -9 9 -14 12 -11 4 3 13 -1 22 -9 12 -13 16 -13 23 -2 7 10 9 9 9
-4 0 -9 -5 -20 -11 -23 -7 -5 -5 -13 5 -24 9 -10 17 -31 18 -47 1 -16 10 -37
20 -47 19 -19 24 -52 9 -62 -5 -3 -12 -1 -16 5 -3 5 -11 10 -17 10 -6 0 0 -10
14 -23 l25 -23 -14 -135 c-12 -117 -26 -195 -49 -276 -4 -15 -2 -23 6 -23 10
0 87 58 185 138 56 47 104 82 110 82 4 0 15 10 24 22 10 11 22 18 28 15 6 -4
23 -44 38 -89 14 -46 32 -96 40 -113 19 -45 82 -207 89 -232 7 -23 -6 -38
-123 -137 -58 -48 -71 -55 -71 -33 0 8 -7 14 -15 14 -8 0 -15 -4 -15 -9 0 -12
-34 -10 -48 4 -8 8 -12 8 -12 1 0 -13 23 -23 55 -23 13 0 27 -5 31 -12 5 -8 2
-9 -11 -5 -9 4 -24 2 -31 -4 -11 -9 -14 -9 -14 0 0 8 -6 9 -17 3 -10 -5 -24
-8 -31 -6 -7 1 -8 0 -3 -2 6 -3 9 -11 7 -17 -1 -7 -1 -9 1 -4 7 12 20 8 26 -7
3 -8 -2 -20 -11 -28 -13 -11 -14 -11 -7 1 6 11 4 13 -8 8 -10 -4 -17 -1 -17 5
0 8 -3 9 -10 2 -14 -14 -1 -46 14 -37 6 4 4 -1 -4 -11 -9 -12 -16 -14 -18 -6
-3 7 -9 2 -16 -10 -10 -20 -35 -26 -29 -8 2 4 -4 5 -12 2 -8 -4 -15 -13 -15
-21 0 -8 5 -11 10 -8 16 10 11 -11 -6 -26 -13 -11 -15 -11 -14 2 5 30 0 51
-11 47 -14 -5 -22 -58 -8 -58 5 0 9 -5 9 -11 0 -8 -6 -7 -17 2 -15 12 -16 12
-10 -4 4 -11 0 -25 -11 -37 -10 -11 -33 -68 -51 -127 -41 -136 -86 -234 -146
-317 -48 -68 -62 -75 -81 -42 -7 12 -26 21 -50 23 -21 2 -42 9 -46 16 -6 9 -8
9 -8 0 0 -7 -5 -13 -11 -13 -6 0 -8 7 -5 16 3 8 2 12 -4 9 -6 -4 -17 1 -26 9
-19 20 -41 22 -25 2 9 -11 5 -11 -24 -2 -24 7 -35 17 -36 31 -1 17 -2 17 -6 3
-5 -20 -48 -21 -64 -1 -6 6 -17 9 -26 6 -13 -5 -13 -2 2 20 17 26 16 27 -1 27
-17 0 -16 1 2 14 10 8 16 18 11 22 -4 4 -7 3 -7 -3 0 -5 -18 -10 -40 -11 -31
-2 -38 1 -34 13 5 11 -1 15 -19 15 -38 0 -57 10 -57 31 0 10 4 19 9 19 15 0
19 49 4 54 -9 4 -11 1 -7 -6 4 -7 3 -8 -4 -4 -15 9 -16 36 -1 36 5 0 7 5 4 11
-4 6 -13 8 -20 5 -29 -11 -3 72 85 272 123 277 121 273 133 265 6 -4 8 0 4 11
-4 10 2 34 13 56 23 46 24 50 8 50 -7 0 -26 -21 -42 -48 -16 -26 -64 -90 -105
-142 -42 -52 -93 -119 -114 -149 -48 -68 -59 -79 -75 -73 -7 2 -10 -2 -6 -12
5 -12 2 -15 -10 -10 -9 3 -16 10 -16 15 0 5 -15 9 -34 7 -23 -1 -32 -6 -29
-15 9 -24 -12 -13 -29 15 -17 26 -17 26 -18 5 0 -28 -34 -31 -50 -5 -10 15
-11 15 -6 0 3 -10 -4 -23 -20 -33 -14 -9 -23 -19 -20 -22 3 -3 1 -14 -5 -24
-8 -16 -14 -17 -30 -8 -12 6 -18 17 -15 25 3 8 1 14 -4 14 -17 0 -11 -22 16
-57 14 -18 33 -33 42 -33 12 0 13 -3 5 -8 -15 -10 -13 -54 2 -48 8 3 8 -9 -1
-42 -28 -107 -36 -114 -186 -176 -73 -30 -92 -34 -114 -25 -21 7 -29 7 -36 -3
-5 -8 -8 -9 -8 -2 0 15 -59 24 -87 13 -18 -7 -23 -5 -24 9 0 10 -3 12 -6 5 -2
-7 -17 -13 -31 -13 l-27 0 24 -19 c16 -12 22 -24 18 -35 -4 -10 -1 -19 8 -22
19 -8 19 -33 0 -57 -7 -11 -12 -26 -9 -35 3 -10 -1 -7 -7 5 -12 24 -29 31 -29
13 0 -5 5 -10 10 -10 6 0 10 -8 10 -19 0 -27 -34 -31 -286 -31 -196 0 -224 2
-224 16 0 9 -5 12 -12 8 -7 -5 -8 -3 -4 5 9 14 -16 37 -56 52 -16 6 -28 15
-28 19 0 9 -13 8 -42 -3 -10 -4 -25 -9 -34 -12 -11 -3 -13 -11 -9 -26 6 -18 4
-21 -9 -16 -11 5 -16 1 -16 -13 0 -12 -7 -20 -16 -20 -23 0 -55 20 -49 30 3 6
-1 7 -9 4 -9 -3 -16 -1 -16 5 0 6 7 11 15 11 8 0 15 5 15 10 0 7 -7 7 -20 0
-18 -10 -22 -7 -35 24 -19 45 -19 46 5 46 12 0 20 -7 20 -17 0 -9 3 -13 7 -9
10 10 11 76 1 76 -4 0 -8 -8 -9 -17 -1 -12 -4 -10 -9 7 -8 24 -8 24 -9 3 -1
-13 -5 -23 -10 -23 -12 0 0 44 24 89 16 31 100 152 243 346 32 44 112 157 179
250 66 94 182 256 259 361 76 106 182 251 234 323 52 73 139 191 192 264 53
73 133 184 177 247 115 165 258 364 756 1050 125 173 272 376 326 450 127 175
169 204 268 180 29 -7 59 -22 74 -38 13 -15 89 -117 168 -227 222 -312 287
-395 303 -389 16 6 103 128 131 184 18 34 128 213 430 700 83 135 183 297 222
360 83 137 396 640 603 970 155 247 511 819 548 882 13 20 41 53 64 73 38 35
44 37 95 33 44 -4 60 -11 87 -37z m-1994 -3131 c0 -5 -2 -10 -4 -10 -3 0 -8 5
-11 10 -3 6 -1 10 4 10 6 0 11 -4 11 -10z m-60 -160 c0 -5 -5 -10 -11 -10 -5
0 -7 5 -4 10 3 6 8 10 11 10 2 0 4 -4 4 -10z m1339 -1301 c10 -18 10 -23 0
-30 -7 -4 -17 -5 -21 -3 -5 3 -7 0 -6 -7 2 -6 -2 -13 -8 -16 -6 -2 -11 4 -11
13 0 9 8 19 18 21 15 4 16 9 8 24 -14 26 3 24 20 -2z m-22 -91 c-3 -8 -6 -5
-6 6 -1 11 2 17 5 13 3 -3 4 -12 1 -19z m1 -53 c-3 -3 -9 2 -12 12 -6 14 -5
15 5 6 7 -7 10 -15 7 -18z m39 -17 c-3 -8 -6 -5 -6 6 -1 11 2 17 5 13 3 -3 4
-12 1 -19z m30 -24 c-3 -3 -12 -4 -19 -1 -8 3 -5 6 6 6 11 1 17 -2 13 -5z
m121 -65 c-3 -8 -7 -3 -11 10 -4 17 -3 21 5 13 5 -5 8 -16 6 -23z m-810 -146
c68 -42 77 -52 102 -107 15 -34 38 -90 50 -126 22 -62 34 -82 97 -160 15 -18
22 -31 16 -27 -7 4 -14 -1 -18 -12 -4 -13 -11 -18 -22 -14 -11 4 -14 2 -9 -5
4 -7 2 -12 -3 -12 -6 0 -11 7 -11 15 0 8 7 15 15 15 13 0 13 2 3 14 -9 9 -15
10 -20 3 -3 -6 -14 -12 -24 -13 -9 -2 -21 -8 -25 -16 -6 -9 -11 -6 -18 12 -5
14 -10 19 -10 12 -1 -10 -6 -10 -21 -2 -12 6 -18 16 -14 23 4 7 4 9 -1 5 -16
-15 -33 14 -60 100 -57 185 -88 278 -101 304 -26 51 -21 50 74 -9z m1169 -25
c-3 -7 -5 -2 -5 12 0 14 2 19 5 13 2 -7 2 -19 0 -25z m436 -263 c-3 -9 -8 -14
-10 -11 -3 3 -2 9 2 15 9 16 15 13 8 -4z m88 -35 c6 0 7 -5 4 -11 -5 -6 -12
-4 -20 8 -7 10 -10 22 -7 28 4 5 8 2 10 -7 2 -10 8 -18 13 -18z m749 -39 c0
-3 -5 -13 -10 -21 -8 -13 -10 -13 -10 2 0 12 -5 15 -17 11 -15 -6 -16 -5 -3 9
14 14 40 14 40 -1z m-60 -1 c0 -5 -5 -10 -11 -10 -5 0 -7 5 -4 10 3 6 8 10 11
10 2 0 4 -4 4 -10z m-2101 -92 c11 -15 10 -17 -8 -15 -12 1 -21 2 -21 3 0 6
13 34 14 32 1 -2 7 -11 15 -20z m1876 -17 c3 -5 1 -12 -5 -16 -5 -3 -10 1 -10
9 0 18 6 21 15 7z m205 -135 c0 -6 -7 -3 -14 6 -7 10 -16 15 -19 11 -4 -3 -7
2 -7 12 0 17 1 17 20 0 11 -10 20 -23 20 -29z m-55 13 c11 -17 -1 -21 -15 -4
-8 9 -8 15 -2 15 6 0 14 -5 17 -11z m-1905 -9 c8 -5 12 -11 10 -14 -3 -2 -14
2 -24 10 -22 15 -10 19 14 4z m70 -52 c0 -6 -6 -5 -15 2 -8 7 -15 14 -15 16 0
2 7 1 15 -2 8 -4 15 -11 15 -16z m-3023 -4 c-3 -3 -12 -4 -19 -1 -8 3 -5 6 6
6 11 1 17 -2 13 -5z m5004 -38 c10 6 12 -9 2 -19 -10 -10 -34 14 -26 26 5 8 8
7 11 -1 2 -7 8 -10 13 -6z m-4821 -267 c0 -11 -4 -18 -10 -14 -5 3 -7 12 -3
20 7 21 13 19 13 -6z m-61 -40 c8 -20 51 -20 51 0 1 13 2 13 11 -2 5 -9 7 -22
4 -27 -11 -18 18 -38 42 -29 13 5 23 7 24 6 6 -18 5 -36 -1 -32 -5 3 -11 1
-15 -5 -3 -6 4 -14 17 -19 17 -7 19 -10 6 -10 -10 -1 -18 -5 -18 -9 0 -5 10
-8 23 -6 12 1 28 3 35 3 6 1 12 8 12 17 0 14 2 14 17 -1 14 -14 14 -18 2 -25
-10 -7 -11 -12 -2 -21 8 -8 9 -18 0 -36 -9 -19 -8 -26 4 -34 9 -5 -60 -9 -183
-9 l-198 0 24 53 c59 130 89 187 98 187 5 0 7 4 4 8 -3 5 5 8 16 7 12 -1 24
-8 27 -16z m179 -54 c-3 -3 -9 2 -12 12 -6 14 -5 15 5 6 7 -7 10 -15 7 -18z
m-838 5 c0 -5 -4 -10 -10 -10 -5 0 -10 5 -10 10 0 6 5 10 10 10 6 0 10 -4 10
-10z"/>
<path d="M6665 7893 c-31 -37 -65 -79 -75 -93 -18 -25 -18 -25 6 -26 25 -2 33
11 12 18 -9 3 -9 6 0 12 7 4 12 2 12 -3 0 -18 29 -12 39 7 6 10 8 28 5 40 -5
16 -2 20 13 18 10 -2 21 4 25 13 6 14 7 14 7 -1 1 -10 8 -18 16 -18 8 0 15 -4
15 -10 0 -10 68 -26 76 -18 8 9 -8 38 -17 32 -5 -3 -6 1 -3 9 8 22 -30 82 -54
85 -15 2 -35 -14 -77 -65z"/>
<path d="M6820 7812 c0 -5 -10 -8 -22 -5 -23 5 -23 5 -3 -10 15 -13 16 -16 5
-17 -12 0 -13 -2 -1 -9 7 -5 10 -14 7 -20 -4 -6 -2 -11 3 -11 6 0 11 -5 11
-11 0 -5 -4 -8 -9 -5 -5 3 -11 -1 -15 -9 -3 -9 0 -15 9 -15 10 0 15 -12 16
-37 l1 -38 10 34 c7 26 12 31 19 20 7 -11 9 -8 10 11 1 14 0 29 -1 35 -1 5 -2
19 -3 30 -1 20 -37 76 -37 57z"/>
<path d="M6846 7622 c-2 -4 -1 -14 4 -22 7 -11 9 -9 7 8 -1 24 -3 26 -11 14z"/>
<path d="M6240 7585 c-11 -13 -10 -14 4 -9 9 3 16 10 16 15 0 13 -6 11 -20 -6z"/>
<path d="M6470 7366 c0 -2 7 -6 15 -10 8 -3 15 -1 15 4 0 6 -7 10 -15 10 -8 0
-15 -2 -15 -4z"/>
<path d="M6022 7259 c-34 -52 -43 -92 -17 -83 8 4 15 10 15 16 0 5 -6 6 -12 2
-10 -6 -9 -3 0 8 8 9 19 15 26 12 8 -3 16 2 19 10 4 9 2 16 -4 16 -6 0 -9 10
-7 23 2 15 9 21 21 19 20 -3 23 13 4 21 -7 3 -26 -16 -45 -44z"/>
<path d="M6050 7260 c0 -5 5 -10 11 -10 5 0 7 5 4 10 -3 6 -8 10 -11 10 -2 0
-4 -4 -4 -10z"/>
<path d="M5966 7181 c-4 -7 -5 -15 -2 -18 9 -9 19 4 14 18 -4 11 -6 11 -12 0z"/>
<path d="M6561 7089 c-13 -11 -30 -18 -37 -15 -9 3 -11 -1 -7 -11 5 -13 2 -15
-12 -10 -9 4 -24 2 -31 -4 -8 -6 -27 -9 -44 -7 -24 4 -30 1 -30 -14 0 -12 4
-16 12 -12 7 4 8 3 4 -4 -4 -6 -13 -9 -21 -5 -8 3 -15 0 -15 -6 0 -10 14 -15
33 -12 4 0 7 -4 7 -10 0 -6 -7 -8 -15 -5 -8 3 -22 9 -30 12 -8 3 -15 1 -15 -6
0 -6 4 -9 8 -6 4 2 14 1 21 -4 10 -6 6 -16 -20 -45 l-34 -37 -5 -132 -5 -131
-112 -228 c-62 -125 -113 -229 -113 -232 0 -12 20 -3 45 23 16 15 25 21 21 14
-7 -11 -4 -12 13 -3 12 7 26 9 32 5 8 -4 9 1 4 15 -5 16 -3 22 7 20 29 -4 38
2 38 24 0 15 3 18 8 9 5 -7 16 -10 26 -6 13 5 16 14 11 33 -4 19 -3 22 5 11 7
-11 10 -11 10 -2 0 7 5 10 10 7 6 -3 10 0 10 8 0 16 -41 17 -52 2 -5 -7 -8 -7
-8 0 1 6 41 52 90 104 l90 94 1 141 c1 77 4 129 6 114 5 -32 23 -37 30 -9 3
11 11 22 19 25 21 8 29 -15 11 -29 -20 -15 -22 -25 -4 -25 8 0 19 11 25 25 9
19 8 27 -4 40 -14 13 -14 15 0 15 8 0 18 -5 21 -10 4 -6 10 -8 15 -5 5 3 13
-3 19 -12 6 -10 11 -14 11 -10 0 16 -32 56 -43 53 -7 -1 -9 -1 -4 1 14 9 7 25
-9 19 -10 -4 -13 -2 -8 6 4 7 9 25 11 40 3 26 1 28 -23 22 l-26 -7 32 64 c18
35 41 76 51 91 11 14 19 29 19 32 0 12 -26 5 -49 -15z m-90 -69 c-19 -16 -37
-28 -39 -25 -6 6 51 54 63 54 6 0 -5 -13 -24 -29z m16 -222 c-3 -8 -6 -5 -6 6
-1 11 2 17 5 13 3 -3 4 -12 1 -19z m-287 -568 c0 -5 -4 -10 -10 -10 -5 0 -10
5 -10 10 0 6 5 10 10 10 6 0 10 -4 10 -10z"/>
<path d="M6370 7034 c0 -8 5 -12 10 -9 6 4 8 11 5 16 -9 14 -15 11 -15 -7z"/>
<path d="M6310 7025 c-18 -21 -3 -32 16 -13 10 9 12 18 6 22 -5 3 -15 -1 -22
-9z"/>
<path d="M6320 6986 c0 -2 7 -7 16 -10 8 -3 12 -2 9 4 -6 10 -25 14 -25 6z"/>
<path d="M6357 6953 c-10 -9 -9 -23 2 -23 5 0 11 7 15 15 5 15 -5 20 -17 8z"/>
<path d="M5757 6838 c-138 -224 -144 -235 -144 -273 l-1 -40 13 30 c7 16 11
35 8 42 -3 7 0 13 6 13 6 0 11 -4 11 -10 0 -20 37 -9 48 15 9 20 9 23 -3 19
-8 -3 -13 -11 -12 -16 1 -6 -3 -12 -10 -15 -9 -3 -9 3 0 26 9 24 19 31 49 36
21 4 41 11 44 17 4 6 -2 8 -17 4 -13 -3 -18 -3 -11 0 6 3 12 13 12 21 0 9 6
13 15 9 10 -4 15 1 15 14 0 11 -5 19 -12 18 -8 -2 -12 10 -11 35 1 37 13 68
13 34 0 -9 4 -17 10 -17 6 0 6 9 0 24 -5 13 -6 27 -3 30 4 3 3 6 0 6 -4 0 -13
-10 -20 -22z"/>
<path d="M6647 6746 c-4 -10 -1 -13 8 -9 8 3 12 9 9 14 -7 12 -11 11 -17 -5z"/>
<path d="M5418 6592 c7 -5 10 -17 7 -28 -6 -17 -6 -18 5 -1 12 19 6 37 -13 37
-9 0 -8 -3 1 -8z"/>
<path d="M5590 6565 c-7 -9 -8 -15 -2 -15 5 0 12 7 16 15 3 8 4 15 2 15 -2 0
-9 -7 -16 -15z"/>
<path d="M5451 6554 c0 -11 3 -14 6 -6 3 7 2 16 -1 19 -3 4 -6 -2 -5 -13z"/>
<path d="M5576 6532 c6 -4 14 -14 17 -22 4 -10 6 -8 6 8 1 15 -5 22 -16 22
-11 0 -14 -3 -7 -8z"/>
<path d="M5555 6460 c3 -5 11 -10 16 -10 6 0 7 5 4 10 -3 6 -11 10 -16 10 -6
0 -7 -4 -4 -10z"/>
<path d="M5440 6400 c0 -5 5 -10 11 -10 5 0 7 5 4 10 -3 6 -8 10 -11 10 -2 0
-4 -4 -4 -10z"/>
<path d="M6957 6259 c-29 -42 -52 -67 -59 -63 -7 5 -8 3 -3 -5 4 -8 -7 -33
-28 -64 -96 -142 -165 -270 -137 -252 13 8 53 -105 54 -154 0 -64 -36 -251
-48 -251 -6 0 -6 -4 1 -8 10 -6 10 -19 -1 -60 -18 -71 4 -71 40 1 15 28 62
105 105 171 89 134 89 132 59 276 -11 52 -20 111 -20 130 0 37 64 267 86 312
16 31 17 38 7 38 -5 -1 -30 -32 -56 -71z"/>
<path d="M5845 6020 c-3 -5 -1 -10 4 -10 6 0 11 5 11 10 0 6 -2 10 -4 10 -3 0
-8 -4 -11 -10z"/>
<path d="M3894 5796 c-36 -17 -61 -38 -84 -71 -17 -25 -29 -49 -26 -52 3 -3 8
2 12 11 7 19 30 21 37 4 3 -7 6 -2 6 12 1 17 4 21 9 12 6 -9 12 -6 22 13 10
18 17 22 26 15 8 -8 12 -7 11 2 -1 37 4 48 24 48 11 0 18 4 15 9 -4 5 0 12 6
14 7 3 9 6 3 6 -5 0 -33 -10 -61 -23z m-10 -33 c-5 -5 -12 -12 -16 -18 -4 -6
-8 -2 -8 8 0 9 7 17 17 17 9 0 12 -3 7 -7z"/>
<path d="M7827 5793 c-4 -3 -7 -11 -7 -17 0 -6 5 -5 12 2 6 6 9 14 7 17 -3 3
-9 2 -12 -2z"/>
<path d="M7810 5714 c0 -8 5 -12 10 -9 6 3 10 10 10 16 0 5 -4 9 -10 9 -5 0
-10 -7 -10 -16z"/>
<path d="M8000 5710 c0 -5 5 -10 11 -10 5 0 7 5 4 10 -3 6 -8 10 -11 10 -2 0
-4 -4 -4 -10z"/>
<path d="M3981 5620 c-1 -9 4 -21 11 -28 9 -9 8 -12 -7 -12 -17 -1 -17 -3 5
-14 25 -15 45 -12 35 4 -3 5 2 21 11 35 9 14 12 25 6 25 -6 0 -14 -9 -17 -20
-8 -26 -23 -25 -35 3 -5 13 -9 16 -9 7z"/>
<path d="M6157 5573 c-4 -3 -7 -11 -7 -17 0 -6 5 -5 12 2 6 6 9 14 7 17 -3 3
-9 2 -12 -2z"/>
<path d="M6200 5571 c0 -6 4 -12 8 -15 5 -3 9 1 9 9 0 8 -4 15 -9 15 -4 0 -8
-4 -8 -9z"/>
<path d="M3936 5561 c-3 -5 7 -12 24 -16 17 -4 28 -10 26 -14 -3 -4 1 -8 9 -8
8 0 15 4 15 7 0 12 -30 33 -37 27 -3 -4 -12 -2 -19 4 -8 6 -14 6 -18 0z"/>
<path d="M4070 5549 c0 -14 31 -26 56 -21 13 2 24 9 24 14 0 5 -4 6 -10 3 -5
-3 -16 -3 -22 1 -17 11 -48 12 -48 3z"/>
<path d="M8010 5441 c0 -5 5 -13 10 -16 6 -3 10 -2 10 4 0 5 -4 13 -10 16 -5
3 -10 2 -10 -4z"/>
<path d="M4210 5411 c0 -6 4 -12 8 -15 5 -3 9 1 9 9 0 8 -4 15 -9 15 -4 0 -8
-4 -8 -9z"/>
<path d="M8016 5397 c3 -10 9 -15 12 -12 3 3 0 11 -7 18 -10 9 -11 8 -5 -6z"/>
<path d="M4422 5360 c0 -14 2 -19 5 -12 2 6 2 18 0 25 -3 6 -5 1 -5 -13z"/>
<path d="M8040 5340 c0 -5 -6 -7 -14 -4 -8 3 -17 1 -20 -5 -4 -5 4 -13 16 -17
13 -4 24 -2 26 5 2 6 8 9 13 6 5 -4 6 1 3 9 -7 18 -24 22 -24 6z"/>
<path d="M4413 5310 c1 -11 5 -20 9 -20 11 0 10 28 -1 35 -6 3 -9 -4 -8 -15z"/>
<path d="M3435 5194 c-114 -163 -109 -154 -90 -154 8 0 15 7 15 15 0 7 6 18
13 22 7 4 18 19 25 33 8 17 11 18 7 5 -2 -11 0 -27 5 -35 8 -12 10 -11 10 5 0
11 14 35 30 53 30 33 38 48 21 38 -5 -3 -11 0 -14 8 -4 10 3 12 26 10 21 -3
36 2 49 16 16 17 16 20 3 20 -18 0 -19 4 -3 29 8 13 9 26 2 41 -9 20 -18 10
-99 -106z m91 79 c-10 -10 -19 5 -10 18 6 11 8 11 12 0 2 -7 1 -15 -2 -18z
m-76 -104 c0 -6 -8 -18 -17 -27 -16 -16 -16 -16 -10 1 4 10 7 23 7 28 0 5 5 9
10 9 6 0 10 -5 10 -11z"/>
<path d="M4368 5300 c-10 -10 -14 -22 -9 -24 4 -3 13 6 19 19 14 30 12 31 -10
5z"/>
<path d="M3944 5234 c-70 -48 -246 -137 -253 -128 -7 10 -47 34 -56 34 -4 0
-4 -4 -1 -9 5 -7 -46 -25 -64 -23 -3 0 -17 -8 -30 -18 -24 -19 -24 -19 -2 -13
14 3 22 1 22 -8 0 -7 -3 -10 -6 -7 -3 4 -18 2 -34 -2 -24 -7 -28 -6 -24 8 4
13 3 13 -6 -2 -9 -14 -9 -24 -1 -44 10 -20 9 -27 -1 -33 -10 -7 -10 -9 1 -9
11 0 12 -15 7 -72 -4 -40 -9 -82 -11 -93 -2 -11 -7 -60 -10 -110 -4 -56 -12
-99 -22 -114 -24 -36 -217 -221 -248 -237 -31 -16 -48 -19 -25 -4 12 8 11 10
-7 10 -14 0 -23 6 -23 15 0 8 -4 15 -10 15 -5 0 -10 -4 -10 -9 0 -5 -14 -8
-31 -7 -19 0 -34 -5 -37 -13 -2 -8 -1 -11 4 -8 5 3 10 -6 10 -19 1 -16 -4 -24
-15 -24 -13 -1 -13 -3 3 -12 15 -8 21 -8 24 0 9 27 17 9 14 -30 -2 -32 -1 -39
7 -28 7 10 11 11 11 3 0 -7 7 -13 16 -13 8 0 13 -4 9 -9 -3 -5 -1 -12 5 -16 5
-3 10 -1 10 5 0 6 5 8 10 5 6 -4 8 -11 5 -16 -4 -5 4 -8 17 -6 18 1 23 -3 22
-20 0 -13 5 -23 11 -23 7 0 13 11 13 25 0 14 -6 25 -13 25 -14 0 -29 29 -20
38 3 3 5 0 5 -8 0 -10 3 -10 15 0 9 7 19 10 22 6 4 -4 1 -11 -7 -16 -8 -6 -10
-10 -4 -10 18 0 36 27 32 47 -5 22 32 59 43 42 4 -8 9 -8 13 -1 4 6 -1 15 -9
19 -17 10 8 28 194 141 52 31 97 64 102 72 4 8 19 65 33 125 14 61 24 93 22
73 -3 -21 -1 -38 5 -38 5 0 10 7 10 15 1 8 3 20 4 25 1 6 3 22 4 36 1 22 3 25
16 14 16 -14 21 -55 5 -45 -5 3 -10 2 -10 -3 0 -5 9 -12 20 -15 11 -3 17 -1
14 4 -9 15 6 49 23 49 12 0 13 3 4 13 -6 8 -8 17 -4 20 3 4 1 7 -5 7 -16 0
-15 37 1 43 9 3 9 7 1 18 -16 21 -24 59 -11 56 5 -1 13 7 16 18 6 21 90 134
179 242 30 36 52 66 49 69 -2 2 -21 -8 -43 -22z m-229 -394 c-8 -27 -14 -36
-14 -23 -1 24 17 78 24 71 2 -2 -2 -24 -10 -48z m-535 -600 c0 -5 -4 -10 -10
-10 -5 0 -10 5 -10 10 0 6 5 10 10 10 6 0 10 -4 10 -10z"/>
<path d="M7730 5118 c0 -21 2 -38 4 -38 9 0 12 50 5 62 -6 8 -9 -1 -9 -24z"/>
<path d="M6655 5130 c-3 -5 -1 -10 4 -10 6 0 11 5 11 10 0 6 -2 10 -4 10 -3 0
-8 -4 -11 -10z"/>
<path d="M6780 5093 c0 -4 5 -15 10 -23 8 -13 10 -13 10 2 0 9 -4 20 -10 23
-5 3 -10 3 -10 -2z"/>
<path d="M6820 5050 c0 -6 7 -10 15 -10 8 0 15 2 15 4 0 2 -7 6 -15 10 -8 3
-15 1 -15 -4z"/>
<path d="M6877 4971 c4 -18 2 -23 -9 -19 -9 4 -14 -1 -15 -13 -1 -10 2 -19 8
-19 5 0 9 5 9 10 0 6 5 10 10 10 6 0 10 -16 10 -35 0 -19 4 -35 9 -35 16 0 22
18 9 23 -10 4 -11 7 0 18 16 17 15 29 -1 29 -7 0 -18 12 -25 28 -9 22 -10 22
-5 3z"/>
<path d="M3775 4969 c-4 -6 -5 -12 -2 -15 2 -3 7 2 10 11 7 17 1 20 -8 4z"/>
<path d="M6905 4960 c3 -5 8 -10 11 -10 2 0 4 5 4 10 0 6 -5 10 -11 10 -5 0
-7 -4 -4 -10z"/>
<path d="M7015 4910 c3 -5 8 -10 11 -10 2 0 4 5 4 10 0 6 -5 10 -11 10 -5 0
-7 -4 -4 -10z"/>
<path d="M6933 4884 c0 -16 13 -19 21 -5 3 5 0 11 -7 14 -8 3 -14 -1 -14 -9z"/>
<path d="M6973 4877 c0 -8 6 -14 14 -14 9 0 10 4 2 14 -6 7 -12 13 -14 13 -1
0 -2 -6 -2 -13z"/>
<path d="M7121 4784 c0 -11 3 -14 6 -6 3 7 2 16 -1 19 -3 4 -6 -2 -5 -13z"/>
<path d="M7275 4770 c-3 -5 -1 -10 4 -10 6 0 11 5 11 10 0 6 -2 10 -4 10 -3 0
-8 -4 -11 -10z"/>
<path d="M7250 4721 c0 -5 5 -13 10 -16 6 -3 10 -2 10 4 0 5 -4 13 -10 16 -5
3 -10 2 -10 -4z"/>
<path d="M7280 4682 c0 -4 9 -8 19 -8 11 0 17 4 15 8 -3 4 -12 8 -20 8 -8 0
-14 -4 -14 -8z"/>
<path d="M7348 4683 c-19 -5 -25 -43 -7 -43 5 0 7 5 3 12 -5 8 -2 9 9 5 12 -5
17 -1 17 13 0 11 -1 19 -2 19 -2 -1 -11 -3 -20 -6z"/>
<path d="M3835 4650 c-3 -5 -1 -10 4 -10 6 0 11 5 11 10 0 6 -2 10 -4 10 -3 0
-8 -4 -11 -10z"/>
<path d="M3930 4590 c0 -5 5 -10 10 -10 6 0 10 5 10 10 0 6 -4 10 -10 10 -5 0
-10 -4 -10 -10z"/>
<path d="M7455 4590 c-3 -5 -1 -10 4 -10 6 0 11 5 11 10 0 6 -2 10 -4 10 -3 0
-8 -4 -11 -10z"/>
<path d="M7496 4567 c3 -10 9 -15 12 -12 3 3 0 11 -7 18 -10 9 -11 8 -5 -6z"/>
<path d="M4061 4554 c0 -11 3 -14 6 -6 3 7 2 16 -1 19 -3 4 -6 -2 -5 -13z"/>
<path d="M2933 4493 c-66 -90 -91 -129 -75 -120 6 5 12 4 12 -1 0 -5 7 -9 15
-9 8 0 15 5 15 10 0 5 7 4 15 -3 10 -8 19 -9 25 -4 12 13 16 56 7 72 -5 7 -4
12 2 12 6 0 11 7 11 16 0 8 -4 12 -10 9 -18 -11 -11 14 10 35 11 11 17 20 14
20 -4 0 -1 7 6 15 7 8 10 15 8 15 -3 0 -28 -30 -55 -67z m-2 -86 c-10 -9 -11
-8 -5 6 3 10 9 15 12 12 3 -3 0 -11 -7 -18z m-27 -2 c-4 -8 -11 -15 -16 -15
-6 0 -5 6 2 15 7 8 14 15 16 15 2 0 1 -7 -2 -15z"/>
<path d="M7610 4519 c0 -5 5 -7 10 -4 6 3 10 8 10 11 0 2 -4 4 -10 4 -5 0 -10
-5 -10 -11z"/>
<path d="M4420 4395 c0 -8 2 -15 4 -15 2 0 6 7 10 15 3 8 1 15 -4 15 -6 0 -10
-7 -10 -15z"/>
<path d="M4034 4379 c0 -10 4 -19 8 -19 4 0 8 6 8 14 0 8 -4 17 -8 20 -4 2 -8
-4 -8 -15z"/>
<path d="M4086 4393 c5 -5 12 -12 16 -18 4 -6 8 -2 8 8 0 9 -7 17 -17 17 -9 0
-12 -3 -7 -7z"/>
<path d="M4360 4390 c0 -5 5 -10 11 -10 5 0 7 5 4 10 -3 6 -8 10 -11 10 -2 0
-4 -4 -4 -10z"/>
<path d="M4397 4380 c-3 -11 -1 -20 4 -20 5 0 9 9 9 20 0 11 -2 20 -4 20 -2 0
-6 -9 -9 -20z"/>
<path d="M4461 4383 c0 -10 3 -13 5 -6 3 7 11 10 19 7 8 -3 22 -1 32 5 15 9
12 10 -19 11 -30 0 -38 -4 -37 -17z"/>
<path d="M3990 4370 c-7 -14 -7 -20 0 -20 5 0 10 6 11 13 0 6 4 3 9 -8 8 -18
9 -17 9 8 1 32 -14 36 -29 7z"/>
<path d="M4561 4364 c0 -11 3 -14 6 -6 3 7 2 16 -1 19 -3 4 -6 -2 -5 -13z"/>
<path d="M7900 4365 c0 -8 2 -15 4 -15 2 0 6 7 10 15 3 8 1 15 -4 15 -6 0 -10
-7 -10 -15z"/>
<path d="M7900 4320 c8 -5 20 -10 25 -10 6 0 3 5 -5 10 -8 5 -19 10 -25 10 -5
0 -3 -5 5 -10z"/>
<path d="M4545 4309 c-4 -6 -5 -12 -2 -15 2 -3 7 2 10 11 7 17 1 20 -8 4z"/>
<path d="M4565 4295 c-5 -17 -8 -33 -7 -37 1 -5 -1 -7 -5 -5 -5 1 -8 -2 -8 -8
0 -5 6 -9 13 -9 8 1 11 -5 7 -20 -5 -17 -4 -18 4 -6 6 8 11 27 11 42 0 15 8
35 18 44 15 16 15 17 0 12 -9 -4 -18 -2 -21 5 -2 7 -7 -2 -12 -18z"/>
<path d="M8440 4300 c0 -5 7 -10 15 -10 8 0 15 5 15 10 0 6 -7 10 -15 10 -8 0
-15 -4 -15 -10z"/>
<path d="M7985 4290 c-3 -5 -1 -10 4 -10 6 0 11 5 11 10 0 6 -2 10 -4 10 -3 0
-8 -4 -11 -10z"/>
<path d="M3081 4264 c0 -11 3 -14 6 -6 3 7 2 16 -1 19 -3 4 -6 -2 -5 -13z"/>
<path d="M4485 4270 c-10 -16 7 -31 23 -21 10 6 10 10 -2 20 -10 9 -16 9 -21
1z"/>
<path d="M4135 4260 c3 -5 8 -10 11 -10 2 0 4 5 4 10 0 6 -5 10 -11 10 -5 0
-7 -4 -4 -10z"/>
<path d="M3280 4250 c0 -13 33 -21 42 -12 6 6 -1 11 -16 14 -14 3 -26 2 -26
-2z"/>
<path d="M4379 4258 c-11 -48 -7 -61 11 -29 7 13 7 22 0 26 -5 3 -10 5 -11 3z"/>
<path d="M4723 4240 c1 -20 12 -26 20 -12 3 4 -1 13 -8 19 -11 10 -13 9 -12
-7z"/>
<path d="M4610 4241 c0 -18 12 -41 22 -41 6 0 5 6 -2 15 -9 11 -9 15 -1 15 7
0 9 5 6 10 -8 13 -25 13 -25 1z"/>
<path d="M4303 4198 c3 -10 2 -20 -3 -23 -5 -3 -7 -12 -4 -20 4 -8 10 -12 15
-9 5 3 6 10 3 16 -4 6 -1 14 5 18 9 5 7 11 -5 21 -16 12 -17 12 -11 -3z"/>
<path d="M8385 4199 c-4 -6 -5 -12 -2 -15 2 -3 7 2 10 11 7 17 1 20 -8 4z"/>
<path d="M8338 4183 c6 -2 18 -2 25 0 6 3 1 5 -13 5 -14 0 -19 -2 -12 -5z"/>
<path d="M3167 4173 c-4 -3 -7 -11 -7 -17 0 -6 5 -5 12 2 6 6 9 14 7 17 -3 3
-9 2 -12 -2z"/>
<path d="M4496 4172 c-3 -6 -1 -14 5 -17 14 -9 20 -2 10 14 -6 8 -11 9 -15 3z"/>
<path d="M4428 4163 c7 -3 16 -2 19 1 4 3 -2 6 -13 5 -11 0 -14 -3 -6 -6z"/>
<path d="M4461 4154 c0 -11 3 -14 6 -6 3 7 2 16 -1 19 -3 4 -6 -2 -5 -13z"/>
<path d="M4336 4134 c-9 -24 -7 -27 9 -10 17 17 19 26 6 26 -5 0 -12 -7 -15
-16z"/>
<path d="M4635 4140 c3 -5 12 -7 20 -3 21 7 19 13 -6 13 -11 0 -18 -4 -14 -10z"/>
<path d="M4535 4130 c-12 -20 6 -51 28 -48 20 3 57 33 57 46 0 3 -8 -2 -17
-10 -30 -26 -59 -18 -54 15 2 10 -7 9 -14 -3z"/>
<path d="M3334 4118 c-4 -7 -3 -8 4 -4 7 4 12 2 12 -4 0 -6 5 -8 10 -5 11 7 4
25 -10 25 -5 0 -12 -5 -16 -12z"/>
<path d="M4450 4117 c0 -10 6 -17 14 -17 8 0 17 -6 19 -12 3 -8 6 -8 6 -2 1 6
-8 19 -19 29 -18 16 -20 16 -20 2z"/>
<path d="M8450 4115 c-7 -9 -8 -15 -2 -15 5 0 12 7 16 15 3 8 4 15 2 15 -2 0
-9 -7 -16 -15z"/>
<path d="M8490 4120 c0 -5 5 -10 11 -10 5 0 7 5 4 10 -3 6 -8 10 -11 10 -2 0
-4 -4 -4 -10z"/>
<path d="M4355 4110 c-3 -5 -1 -10 4 -10 6 0 11 5 11 10 0 6 -2 10 -4 10 -3 0
-8 -4 -11 -10z"/>
<path d="M4415 4091 c-3 -5 -1 -12 5 -16 5 -3 10 1 10 9 0 18 -6 21 -15 7z"/>
<path d="M4620 4085 c0 -8 2 -15 4 -15 2 0 6 7 10 15 3 8 1 15 -4 15 -6 0 -10
-7 -10 -15z"/>
<path d="M3397 4050 c-3 -11 -1 -20 4 -20 5 0 9 9 9 20 0 11 -2 20 -4 20 -2 0
-6 -9 -9 -20z"/>
<path d="M4330 4040 c0 -5 5 -10 11 -10 5 0 7 5 4 10 -3 6 -8 10 -11 10 -2 0
-4 -4 -4 -10z"/>
<path d="M3350 4020 c0 -5 5 -10 10 -10 6 0 10 5 10 10 0 6 -4 10 -10 10 -5 0
-10 -4 -10 -10z"/>
<path d="M4512 4013 c-16 -3 -22 -9 -18 -20 3 -8 6 -17 6 -20 0 -3 9 4 20 17
18 20 25 33 18 29 -2 -1 -13 -4 -26 -6z"/>
<path d="M2572 3990 c-7 -11 -10 -20 -6 -20 7 0 34 27 34 34 0 13 -16 5 -28
-14z"/>
<path d="M8635 3960 c3 -5 8 -10 11 -10 2 0 4 5 4 10 0 6 -5 10 -11 10 -5 0
-7 -4 -4 -10z"/>
<path d="M2541 3947 c-8 -10 -7 -14 4 -14 8 0 15 6 15 14 0 7 -2 13 -4 13 -2
0 -9 -6 -15 -13z"/>
<path d="M2515 3910 c-3 -5 -1 -10 4 -10 6 0 11 5 11 10 0 6 -2 10 -4 10 -3 0
-8 -4 -11 -10z"/>
<path d="M2645 3830 c-3 -5 -2 -10 4 -10 5 0 13 5 16 10 3 6 2 10 -4 10 -5 0
-13 -4 -16 -10z"/>
<path d="M2620 3785 c0 -8 4 -15 10 -15 5 0 7 7 4 15 -4 8 -8 15 -10 15 -2 0
-4 -7 -4 -15z"/>
<path d="M2815 3680 c-9 -14 3 -30 23 -29 11 0 12 3 5 6 -20 8 -15 21 10 26
19 4 19 4 -5 6 -15 0 -30 -3 -33 -9z"/>
<path d="M2955 3660 c3 -5 8 -10 11 -10 2 0 4 5 4 10 0 6 -5 10 -11 10 -5 0
-7 -4 -4 -10z"/>
<path d="M2895 3650 c3 -5 8 -10 11 -10 2 0 4 5 4 10 0 6 -5 10 -11 10 -5 0
-7 -4 -4 -10z"/>
<path d="M2120 3619 c0 -5 5 -7 10 -4 6 3 10 8 10 11 0 2 -4 4 -10 4 -5 0 -10
-5 -10 -11z"/>
<path d="M3941 3584 c0 -11 3 -14 6 -6 3 7 2 16 -1 19 -3 4 -6 -2 -5 -13z"/>
<path d="M3962 3588 c6 -18 25 -21 25 -3 0 8 -7 15 -14 15 -8 0 -13 -5 -11
-12z"/>
<path d="M2110 3500 c0 -5 5 -10 11 -10 5 0 7 5 4 10 -3 6 -8 10 -11 10 -2 0
-4 -4 -4 -10z"/>
<path d="M6187 4279 c4 -13 8 -18 11 -10 2 7 -1 18 -6 23 -8 8 -9 4 -5 -13z"/>
<path d="M6237 4271 c-4 -17 -3 -21 5 -13 5 5 8 16 6 23 -3 8 -7 3 -11 -10z"/>
<path d="M3725 3600 c3 -5 11 -10 16 -10 6 0 7 5 4 10 -3 6 -11 10 -16 10 -6
0 -7 -4 -4 -10z"/>
</g>
</svg>
